G04 #@! TF.GenerationSoftware,KiCad,Pcbnew,(5.0.0-rc3-dev)*
G04 #@! TF.CreationDate,2018-11-12T18:29:10+00:00*
G04 #@! TF.ProjectId,agc-dsky,6167632D64736B792E6B696361645F70,v0.1*
G04 #@! TF.SameCoordinates,Original*
G04 #@! TF.FileFunction,Legend,Top*
G04 #@! TF.FilePolarity,Positive*
%FSLAX46Y46*%
G04 Gerber Fmt 4.6, Leading zero omitted, Abs format (unit mm)*
G04 Created by KiCad (PCBNEW (5.0.0-rc3-dev)) date 11/12/18 18:29:10*
%MOMM*%
%LPD*%
G01*
G04 APERTURE LIST*
%ADD10C,0.450000*%
%ADD11C,0.200000*%
%ADD12C,0.300000*%
%ADD13C,0.150000*%
G04 APERTURE END LIST*
D10*
X130423607Y-112000000D02*
G75*
G03X130423607Y-112000000I-223607J0D01*
G01*
D11*
X130140000Y-113200000D02*
X130362386Y-113016560D01*
X130968440Y-110237614D02*
X130768440Y-110437614D01*
X130954860Y-109837614D02*
X130554860Y-109437614D01*
X130360000Y-113020000D02*
X130180000Y-112790000D01*
X131200000Y-112016560D02*
G75*
G03X130200000Y-113016560I-1000000J0D01*
G01*
X130361289Y-116640849D02*
X130361289Y-117040849D01*
D12*
X132883440Y-113009042D02*
X131883440Y-113009042D01*
X132883440Y-111509042D01*
X131883440Y-111509042D01*
X130383440Y-118076899D02*
X130383440Y-118791185D01*
X129883440Y-117291185D02*
X130383440Y-118076899D01*
X130883440Y-117291185D01*
X130683440Y-108721428D02*
X129683440Y-107221428D01*
X129683440Y-108721428D02*
X130683440Y-107221428D01*
D11*
X131161289Y-115615849D02*
X130961289Y-115415849D01*
X130961289Y-115440849D02*
G75*
G02X129761289Y-115440849I-600000J-200000D01*
G01*
X130954860Y-109837614D02*
X130554860Y-110237614D01*
X130768440Y-109237614D02*
G75*
G02X130768440Y-110437614I200000J-600000D01*
G01*
X128958440Y-109837614D02*
X130958440Y-109837614D01*
X130361289Y-114040849D02*
X130361289Y-116040849D01*
X130768440Y-110437614D02*
X130968440Y-110637614D01*
X131830000Y-109860000D02*
X132230000Y-109860000D01*
X130361289Y-113997269D02*
X129961289Y-114397269D01*
X130961289Y-115415849D02*
X130761289Y-115615849D01*
X130361289Y-113997269D02*
X130761289Y-114397269D01*
D12*
X126178571Y-91285714D02*
X126178571Y-90428571D01*
X127678571Y-90857142D02*
X126178571Y-90857142D01*
X127678571Y-90071428D02*
X126678571Y-89285714D01*
X126678571Y-90071428D02*
X127678571Y-89285714D01*
X125178571Y-90392857D02*
X124464285Y-90892857D01*
X125178571Y-91250000D02*
X123678571Y-91250000D01*
X123678571Y-90678571D01*
X123750000Y-90535714D01*
X123821428Y-90464285D01*
X123964285Y-90392857D01*
X124178571Y-90392857D01*
X124321428Y-90464285D01*
X124392857Y-90535714D01*
X124464285Y-90678571D01*
X124464285Y-91250000D01*
X125178571Y-89892857D02*
X124178571Y-89107142D01*
X124178571Y-89892857D02*
X125178571Y-89107142D01*
X121250000Y-90392857D02*
X121178571Y-90535714D01*
X121178571Y-90750000D01*
X121250000Y-90964285D01*
X121392857Y-91107142D01*
X121535714Y-91178571D01*
X121821428Y-91250000D01*
X122035714Y-91250000D01*
X122321428Y-91178571D01*
X122464285Y-91107142D01*
X122607142Y-90964285D01*
X122678571Y-90750000D01*
X122678571Y-90607142D01*
X122607142Y-90392857D01*
X122535714Y-90321428D01*
X122035714Y-90321428D01*
X122035714Y-90607142D01*
X122678571Y-89678571D02*
X121178571Y-89678571D01*
X122678571Y-88821428D01*
X121178571Y-88821428D01*
X122678571Y-88107142D02*
X121178571Y-88107142D01*
X121178571Y-87750000D01*
X121250000Y-87535714D01*
X121392857Y-87392857D01*
X121535714Y-87321428D01*
X121821428Y-87250000D01*
X122035714Y-87250000D01*
X122321428Y-87321428D01*
X122464285Y-87392857D01*
X122607142Y-87535714D01*
X122678571Y-87750000D01*
X122678571Y-88107142D01*
X123857142Y-32500000D02*
X123714285Y-32428571D01*
X123500000Y-32428571D01*
X123285714Y-32500000D01*
X123142857Y-32642857D01*
X123071428Y-32785714D01*
X123000000Y-33071428D01*
X123000000Y-33285714D01*
X123071428Y-33571428D01*
X123142857Y-33714285D01*
X123285714Y-33857142D01*
X123500000Y-33928571D01*
X123642857Y-33928571D01*
X123857142Y-33857142D01*
X123928571Y-33785714D01*
X123928571Y-33285714D01*
X123642857Y-33285714D01*
X124571428Y-33928571D02*
X124571428Y-32928571D01*
X124571428Y-33214285D02*
X124642857Y-33071428D01*
X124714285Y-33000000D01*
X124857142Y-32928571D01*
X125000000Y-32928571D01*
X126071428Y-33857142D02*
X125928571Y-33928571D01*
X125642857Y-33928571D01*
X125500000Y-33857142D01*
X125428571Y-33714285D01*
X125428571Y-33142857D01*
X125500000Y-33000000D01*
X125642857Y-32928571D01*
X125928571Y-32928571D01*
X126071428Y-33000000D01*
X126142857Y-33142857D01*
X126142857Y-33285714D01*
X125428571Y-33428571D01*
X127428571Y-32928571D02*
X127428571Y-34142857D01*
X127357142Y-34285714D01*
X127285714Y-34357142D01*
X127142857Y-34428571D01*
X126928571Y-34428571D01*
X126785714Y-34357142D01*
X127428571Y-33857142D02*
X127285714Y-33928571D01*
X127000000Y-33928571D01*
X126857142Y-33857142D01*
X126785714Y-33785714D01*
X126714285Y-33642857D01*
X126714285Y-33214285D01*
X126785714Y-33071428D01*
X126857142Y-33000000D01*
X127000000Y-32928571D01*
X127285714Y-32928571D01*
X127428571Y-33000000D01*
X128357142Y-33928571D02*
X128214285Y-33857142D01*
X128142857Y-33785714D01*
X128071428Y-33642857D01*
X128071428Y-33214285D01*
X128142857Y-33071428D01*
X128214285Y-33000000D01*
X128357142Y-32928571D01*
X128571428Y-32928571D01*
X128714285Y-33000000D01*
X128785714Y-33071428D01*
X128857142Y-33214285D01*
X128857142Y-33642857D01*
X128785714Y-33785714D01*
X128714285Y-33857142D01*
X128571428Y-33928571D01*
X128357142Y-33928571D01*
X129500000Y-33928571D02*
X129500000Y-32928571D01*
X129500000Y-33214285D02*
X129571428Y-33071428D01*
X129642857Y-33000000D01*
X129785714Y-32928571D01*
X129928571Y-32928571D01*
X130285714Y-32928571D02*
X130642857Y-33928571D01*
X131000000Y-32928571D02*
X130642857Y-33928571D01*
X130500000Y-34285714D01*
X130428571Y-34357142D01*
X130285714Y-34428571D01*
X133214285Y-33142857D02*
X133428571Y-33214285D01*
X133500000Y-33285714D01*
X133571428Y-33428571D01*
X133571428Y-33642857D01*
X133500000Y-33785714D01*
X133428571Y-33857142D01*
X133285714Y-33928571D01*
X132714285Y-33928571D01*
X132714285Y-32428571D01*
X133214285Y-32428571D01*
X133357142Y-32500000D01*
X133428571Y-32571428D01*
X133500000Y-32714285D01*
X133500000Y-32857142D01*
X133428571Y-33000000D01*
X133357142Y-33071428D01*
X133214285Y-33142857D01*
X132714285Y-33142857D01*
X134214285Y-33928571D02*
X134214285Y-32928571D01*
X134214285Y-33214285D02*
X134285714Y-33071428D01*
X134357142Y-33000000D01*
X134500000Y-32928571D01*
X134642857Y-32928571D01*
X135357142Y-33928571D02*
X135214285Y-33857142D01*
X135142857Y-33785714D01*
X135071428Y-33642857D01*
X135071428Y-33214285D01*
X135142857Y-33071428D01*
X135214285Y-33000000D01*
X135357142Y-32928571D01*
X135571428Y-32928571D01*
X135714285Y-33000000D01*
X135785714Y-33071428D01*
X135857142Y-33214285D01*
X135857142Y-33642857D01*
X135785714Y-33785714D01*
X135714285Y-33857142D01*
X135571428Y-33928571D01*
X135357142Y-33928571D01*
X136714285Y-33928571D02*
X136571428Y-33857142D01*
X136500000Y-33785714D01*
X136428571Y-33642857D01*
X136428571Y-33214285D01*
X136500000Y-33071428D01*
X136571428Y-33000000D01*
X136714285Y-32928571D01*
X136928571Y-32928571D01*
X137071428Y-33000000D01*
X137142857Y-33071428D01*
X137214285Y-33214285D01*
X137214285Y-33642857D01*
X137142857Y-33785714D01*
X137071428Y-33857142D01*
X136928571Y-33928571D01*
X136714285Y-33928571D01*
X137857142Y-33928571D02*
X137857142Y-32428571D01*
X138000000Y-33357142D02*
X138428571Y-33928571D01*
X138428571Y-32928571D02*
X137857142Y-33500000D01*
X139000000Y-33857142D02*
X139142857Y-33928571D01*
X139428571Y-33928571D01*
X139571428Y-33857142D01*
X139642857Y-33714285D01*
X139642857Y-33642857D01*
X139571428Y-33500000D01*
X139428571Y-33428571D01*
X139214285Y-33428571D01*
X139071428Y-33357142D01*
X139000000Y-33214285D01*
X139000000Y-33142857D01*
X139071428Y-33000000D01*
X139214285Y-32928571D01*
X139428571Y-32928571D01*
X139571428Y-33000000D01*
X141357142Y-32571428D02*
X141428571Y-32500000D01*
X141571428Y-32428571D01*
X141928571Y-32428571D01*
X142071428Y-32500000D01*
X142142857Y-32571428D01*
X142214285Y-32714285D01*
X142214285Y-32857142D01*
X142142857Y-33071428D01*
X141285714Y-33928571D01*
X142214285Y-33928571D01*
X143142857Y-32428571D02*
X143285714Y-32428571D01*
X143428571Y-32500000D01*
X143500000Y-32571428D01*
X143571428Y-32714285D01*
X143642857Y-33000000D01*
X143642857Y-33357142D01*
X143571428Y-33642857D01*
X143500000Y-33785714D01*
X143428571Y-33857142D01*
X143285714Y-33928571D01*
X143142857Y-33928571D01*
X143000000Y-33857142D01*
X142928571Y-33785714D01*
X142857142Y-33642857D01*
X142785714Y-33357142D01*
X142785714Y-33000000D01*
X142857142Y-32714285D01*
X142928571Y-32571428D01*
X143000000Y-32500000D01*
X143142857Y-32428571D01*
X145071428Y-33928571D02*
X144214285Y-33928571D01*
X144642857Y-33928571D02*
X144642857Y-32428571D01*
X144500000Y-32642857D01*
X144357142Y-32785714D01*
X144214285Y-32857142D01*
X145928571Y-33071428D02*
X145785714Y-33000000D01*
X145714285Y-32928571D01*
X145642857Y-32785714D01*
X145642857Y-32714285D01*
X145714285Y-32571428D01*
X145785714Y-32500000D01*
X145928571Y-32428571D01*
X146214285Y-32428571D01*
X146357142Y-32500000D01*
X146428571Y-32571428D01*
X146500000Y-32714285D01*
X146500000Y-32785714D01*
X146428571Y-32928571D01*
X146357142Y-33000000D01*
X146214285Y-33071428D01*
X145928571Y-33071428D01*
X145785714Y-33142857D01*
X145714285Y-33214285D01*
X145642857Y-33357142D01*
X145642857Y-33642857D01*
X145714285Y-33785714D01*
X145785714Y-33857142D01*
X145928571Y-33928571D01*
X146214285Y-33928571D01*
X146357142Y-33857142D01*
X146428571Y-33785714D01*
X146500000Y-33642857D01*
X146500000Y-33357142D01*
X146428571Y-33214285D01*
X146357142Y-33142857D01*
X146214285Y-33071428D01*
D13*
G04 #@! TO.C,C1*
X142625000Y-59200000D02*
X142625000Y-60300000D01*
X142375000Y-59200000D02*
X142625000Y-59200000D01*
X142375000Y-60300000D02*
X142375000Y-59200000D01*
X142625000Y-60300000D02*
X142375000Y-60300000D01*
G04 #@! TO.C,C5*
X141125000Y-61925000D02*
X141125000Y-62575000D01*
X140875000Y-61925000D02*
X141125000Y-61925000D01*
X140875000Y-62575000D02*
X140875000Y-61925000D01*
X141125000Y-62575000D02*
X140875000Y-62575000D01*
G04 #@! TO.C,C6*
X144375000Y-93300000D02*
X144375000Y-92200000D01*
X144625000Y-93300000D02*
X144375000Y-93300000D01*
X144625000Y-92200000D02*
X144625000Y-93300000D01*
X144375000Y-92200000D02*
X144625000Y-92200000D01*
G04 #@! TO.C,C8*
X142300000Y-108125000D02*
X142300000Y-108375000D01*
X142300000Y-108375000D02*
X141200000Y-108375000D01*
X141200000Y-108375000D02*
X141200000Y-108125000D01*
X141200000Y-108125000D02*
X142300000Y-108125000D01*
G04 #@! TO.C,C9*
X132675000Y-90125000D02*
X132675000Y-89875000D01*
X132675000Y-89875000D02*
X133325000Y-89875000D01*
X133325000Y-89875000D02*
X133325000Y-90125000D01*
X133325000Y-90125000D02*
X132675000Y-90125000D01*
G04 #@! TO.C,C12*
X134825000Y-90875000D02*
X134175000Y-90875000D01*
X134825000Y-90625000D02*
X134825000Y-90875000D01*
X134175000Y-90625000D02*
X134825000Y-90625000D01*
X134175000Y-90875000D02*
X134175000Y-90625000D01*
G04 #@! TO.C,IC1*
X146250000Y-65000000D02*
X145900000Y-65000000D01*
X146250000Y-64650000D02*
X146250000Y-65000000D01*
X146250000Y-62000000D02*
X145900000Y-62000000D01*
X146250000Y-62350000D02*
X146250000Y-62000000D01*
X143250000Y-62000000D02*
X143600000Y-62000000D01*
X143250000Y-62350000D02*
X143250000Y-62000000D01*
X143600000Y-65000000D02*
X143250000Y-64650000D01*
G04 #@! TO.C,IC2*
X140200000Y-95650000D02*
X140200000Y-103950000D01*
X140200000Y-103950000D02*
X131300000Y-103950000D01*
X131300000Y-103950000D02*
X131300000Y-95050000D01*
X131300000Y-95050000D02*
X139600000Y-95050000D01*
X139600000Y-95050000D02*
X140200000Y-95650000D01*
G04 #@! TO.C,IC3*
X117150000Y-77730000D02*
X116550000Y-78330000D01*
X117150000Y-68170000D02*
X117150000Y-77730000D01*
X110850000Y-68170000D02*
X117150000Y-68170000D01*
X110850000Y-78330000D02*
X110850000Y-68170000D01*
X116550000Y-78330000D02*
X110850000Y-78330000D01*
G04 #@! TO.C,IC4*
X117150000Y-92730000D02*
X116550000Y-93330000D01*
X117150000Y-83170000D02*
X117150000Y-92730000D01*
X110850000Y-83170000D02*
X117150000Y-83170000D01*
X110850000Y-93330000D02*
X110850000Y-83170000D01*
X116550000Y-93330000D02*
X110850000Y-93330000D01*
G04 #@! TO.C,IC5*
X116550000Y-108330000D02*
X110850000Y-108330000D01*
X110850000Y-108330000D02*
X110850000Y-98170000D01*
X110850000Y-98170000D02*
X117150000Y-98170000D01*
X117150000Y-98170000D02*
X117150000Y-107730000D01*
X117150000Y-107730000D02*
X116550000Y-108330000D01*
G04 #@! TO.C,J1*
X145450000Y-115950000D02*
X147150000Y-115950000D01*
X145450000Y-115150000D02*
X145450000Y-115950000D01*
X145450000Y-108550000D02*
X145450000Y-109400000D01*
X147150000Y-108550000D02*
X145450000Y-108550000D01*
G04 #@! TO.C,L1*
X142175000Y-65995000D02*
X138325000Y-65995000D01*
X142175000Y-65005000D02*
X142175000Y-65995000D01*
X138325000Y-65005000D02*
X142175000Y-65005000D01*
X138325000Y-65995000D02*
X138325000Y-65005000D01*
G04 #@! TO.C,Q1*
X94500000Y-113250000D02*
X95000000Y-113250000D01*
X95000000Y-113250000D02*
X95000000Y-111250000D01*
X95000000Y-111250000D02*
X94500000Y-111250000D01*
X94500000Y-111250000D02*
X94500000Y-113250000D01*
G04 #@! TO.C,Q2*
X86500000Y-113250000D02*
X87000000Y-113250000D01*
X87000000Y-113250000D02*
X87000000Y-111250000D01*
X87000000Y-111250000D02*
X86500000Y-111250000D01*
X86500000Y-111250000D02*
X86500000Y-113250000D01*
G04 #@! TO.C,Q3*
X78500000Y-113250000D02*
X79000000Y-113250000D01*
X79000000Y-113250000D02*
X79000000Y-111250000D01*
X79000000Y-111250000D02*
X78500000Y-111250000D01*
X78500000Y-111250000D02*
X78500000Y-113250000D01*
G04 #@! TO.C,Q4*
X70500000Y-111250000D02*
X70500000Y-113250000D01*
X71000000Y-111250000D02*
X70500000Y-111250000D01*
X71000000Y-113250000D02*
X71000000Y-111250000D01*
X70500000Y-113250000D02*
X71000000Y-113250000D01*
G04 #@! TO.C,Q5*
X62500000Y-111250000D02*
X62500000Y-113250000D01*
X63000000Y-111250000D02*
X62500000Y-111250000D01*
X63000000Y-113250000D02*
X63000000Y-111250000D01*
X62500000Y-113250000D02*
X63000000Y-113250000D01*
G04 #@! TO.C,Q6*
X105750000Y-48750000D02*
X107750000Y-48750000D01*
X105750000Y-48250000D02*
X105750000Y-48750000D01*
X107750000Y-48250000D02*
X105750000Y-48250000D01*
X107750000Y-48750000D02*
X107750000Y-48250000D01*
G04 #@! TO.C,R1*
X144375000Y-67325000D02*
X144375000Y-66675000D01*
X144625000Y-67325000D02*
X144375000Y-67325000D01*
X144625000Y-66675000D02*
X144625000Y-67325000D01*
X144375000Y-66675000D02*
X144625000Y-66675000D01*
G04 #@! TO.C,R2*
X144875000Y-96575000D02*
X144875000Y-95925000D01*
X145125000Y-96575000D02*
X144875000Y-96575000D01*
X145125000Y-95925000D02*
X145125000Y-96575000D01*
X144875000Y-95925000D02*
X145125000Y-95925000D01*
G04 #@! TO.C,R32*
X65075000Y-114925000D02*
X65075000Y-115575000D01*
X64825000Y-114925000D02*
X65075000Y-114925000D01*
X64825000Y-115575000D02*
X64825000Y-114925000D01*
X65075000Y-115575000D02*
X64825000Y-115575000D01*
G04 #@! TO.C,R34*
X109675000Y-46375000D02*
X109675000Y-46125000D01*
X109675000Y-46125000D02*
X110325000Y-46125000D01*
X110325000Y-46125000D02*
X110325000Y-46375000D01*
X110325000Y-46375000D02*
X109675000Y-46375000D01*
G04 #@! TO.C,R36*
X101675000Y-46375000D02*
X101675000Y-46125000D01*
X101675000Y-46125000D02*
X102325000Y-46125000D01*
X102325000Y-46125000D02*
X102325000Y-46375000D01*
X102325000Y-46375000D02*
X101675000Y-46375000D01*
G04 #@! TO.C,R38*
X104625000Y-113175000D02*
X104625000Y-113825000D01*
X104375000Y-113175000D02*
X104625000Y-113175000D01*
X104375000Y-113825000D02*
X104375000Y-113175000D01*
X104625000Y-113825000D02*
X104375000Y-113825000D01*
D11*
G04 #@! TO.C,SW9*
X146900000Y-74350000D02*
X146900000Y-80150000D01*
X146900000Y-80150000D02*
X141100000Y-80150000D01*
X141100000Y-80150000D02*
X141100000Y-74350000D01*
X141100000Y-74350000D02*
X146900000Y-74350000D01*
X145700000Y-77250000D02*
G75*
G03X145700000Y-77250000I-1700000J0D01*
G01*
D13*
G04 #@! TO.C,Q7*
X99750000Y-48750000D02*
X99750000Y-48250000D01*
X99750000Y-48250000D02*
X97750000Y-48250000D01*
X97750000Y-48250000D02*
X97750000Y-48750000D01*
X97750000Y-48750000D02*
X99750000Y-48750000D01*
G04 #@! TO.C,Q8*
X102250000Y-109750000D02*
X102250000Y-111750000D01*
X102750000Y-109750000D02*
X102250000Y-109750000D01*
X102750000Y-111750000D02*
X102750000Y-109750000D01*
X102250000Y-111750000D02*
X102750000Y-111750000D01*
G04 #@! TO.C,R3*
X104125000Y-70075000D02*
X103875000Y-70075000D01*
X103875000Y-70075000D02*
X103875000Y-69425000D01*
X103875000Y-69425000D02*
X104125000Y-69425000D01*
X104125000Y-69425000D02*
X104125000Y-70075000D01*
G04 #@! TO.C,R4*
X104125000Y-75325000D02*
X103875000Y-75325000D01*
X103875000Y-75325000D02*
X103875000Y-74675000D01*
X103875000Y-74675000D02*
X104125000Y-74675000D01*
X104125000Y-74675000D02*
X104125000Y-75325000D01*
G04 #@! TO.C,R5*
X104125000Y-85075000D02*
X103875000Y-85075000D01*
X103875000Y-85075000D02*
X103875000Y-84425000D01*
X103875000Y-84425000D02*
X104125000Y-84425000D01*
X104125000Y-84425000D02*
X104125000Y-85075000D01*
G04 #@! TO.C,R6*
X104125000Y-90325000D02*
X103875000Y-90325000D01*
X103875000Y-90325000D02*
X103875000Y-89675000D01*
X103875000Y-89675000D02*
X104125000Y-89675000D01*
X104125000Y-89675000D02*
X104125000Y-90325000D01*
G04 #@! TO.C,R7*
X104125000Y-99425000D02*
X104125000Y-100075000D01*
X103875000Y-99425000D02*
X104125000Y-99425000D01*
X103875000Y-100075000D02*
X103875000Y-99425000D01*
X104125000Y-100075000D02*
X103875000Y-100075000D01*
G04 #@! TO.C,R8*
X104125000Y-105325000D02*
X103875000Y-105325000D01*
X103875000Y-105325000D02*
X103875000Y-104675000D01*
X103875000Y-104675000D02*
X104125000Y-104675000D01*
X104125000Y-104675000D02*
X104125000Y-105325000D01*
G04 #@! TO.C,R9*
X104125000Y-67675000D02*
X104125000Y-68325000D01*
X103875000Y-67675000D02*
X104125000Y-67675000D01*
X103875000Y-68325000D02*
X103875000Y-67675000D01*
X104125000Y-68325000D02*
X103875000Y-68325000D01*
G04 #@! TO.C,R10*
X104125000Y-73575000D02*
X103875000Y-73575000D01*
X103875000Y-73575000D02*
X103875000Y-72925000D01*
X103875000Y-72925000D02*
X104125000Y-72925000D01*
X104125000Y-72925000D02*
X104125000Y-73575000D01*
G04 #@! TO.C,R11*
X104125000Y-83325000D02*
X103875000Y-83325000D01*
X103875000Y-83325000D02*
X103875000Y-82675000D01*
X103875000Y-82675000D02*
X104125000Y-82675000D01*
X104125000Y-82675000D02*
X104125000Y-83325000D01*
G04 #@! TO.C,R12*
X104125000Y-87925000D02*
X104125000Y-88575000D01*
X103875000Y-87925000D02*
X104125000Y-87925000D01*
X103875000Y-88575000D02*
X103875000Y-87925000D01*
X104125000Y-88575000D02*
X103875000Y-88575000D01*
G04 #@! TO.C,R13*
X104125000Y-97675000D02*
X104125000Y-98325000D01*
X103875000Y-97675000D02*
X104125000Y-97675000D01*
X103875000Y-98325000D02*
X103875000Y-97675000D01*
X104125000Y-98325000D02*
X103875000Y-98325000D01*
G04 #@! TO.C,R14*
X104125000Y-102925000D02*
X104125000Y-103575000D01*
X103875000Y-102925000D02*
X104125000Y-102925000D01*
X103875000Y-103575000D02*
X103875000Y-102925000D01*
X104125000Y-103575000D02*
X103875000Y-103575000D01*
G04 #@! TO.C,R15*
X104125000Y-66575000D02*
X103875000Y-66575000D01*
X103875000Y-66575000D02*
X103875000Y-65925000D01*
X103875000Y-65925000D02*
X104125000Y-65925000D01*
X104125000Y-65925000D02*
X104125000Y-66575000D01*
G04 #@! TO.C,R16*
X104125000Y-71175000D02*
X104125000Y-71825000D01*
X103875000Y-71175000D02*
X104125000Y-71175000D01*
X103875000Y-71825000D02*
X103875000Y-71175000D01*
X104125000Y-71825000D02*
X103875000Y-71825000D01*
G04 #@! TO.C,R17*
X104125000Y-77075000D02*
X103875000Y-77075000D01*
X103875000Y-77075000D02*
X103875000Y-76425000D01*
X103875000Y-76425000D02*
X104125000Y-76425000D01*
X104125000Y-76425000D02*
X104125000Y-77075000D01*
G04 #@! TO.C,R18*
X104125000Y-80925000D02*
X104125000Y-81575000D01*
X103875000Y-80925000D02*
X104125000Y-80925000D01*
X103875000Y-81575000D02*
X103875000Y-80925000D01*
X104125000Y-81575000D02*
X103875000Y-81575000D01*
G04 #@! TO.C,R19*
X104125000Y-86825000D02*
X103875000Y-86825000D01*
X103875000Y-86825000D02*
X103875000Y-86175000D01*
X103875000Y-86175000D02*
X104125000Y-86175000D01*
X104125000Y-86175000D02*
X104125000Y-86825000D01*
G04 #@! TO.C,R20*
X104125000Y-91425000D02*
X104125000Y-92075000D01*
X103875000Y-91425000D02*
X104125000Y-91425000D01*
X103875000Y-92075000D02*
X103875000Y-91425000D01*
X104125000Y-92075000D02*
X103875000Y-92075000D01*
G04 #@! TO.C,R21*
X104125000Y-96575000D02*
X103875000Y-96575000D01*
X103875000Y-96575000D02*
X103875000Y-95925000D01*
X103875000Y-95925000D02*
X104125000Y-95925000D01*
X104125000Y-95925000D02*
X104125000Y-96575000D01*
G04 #@! TO.C,R22*
X104125000Y-101825000D02*
X103875000Y-101825000D01*
X103875000Y-101825000D02*
X103875000Y-101175000D01*
X103875000Y-101175000D02*
X104125000Y-101175000D01*
X104125000Y-101175000D02*
X104125000Y-101825000D01*
G04 #@! TO.C,R23*
X104125000Y-106425000D02*
X104125000Y-107075000D01*
X103875000Y-106425000D02*
X104125000Y-106425000D01*
X103875000Y-107075000D02*
X103875000Y-106425000D01*
X104125000Y-107075000D02*
X103875000Y-107075000D01*
G04 #@! TO.C,R24*
X96875000Y-115575000D02*
X96625000Y-115575000D01*
X96625000Y-115575000D02*
X96625000Y-114925000D01*
X96625000Y-114925000D02*
X96875000Y-114925000D01*
X96875000Y-114925000D02*
X96875000Y-115575000D01*
G04 #@! TO.C,R25*
X98075000Y-112375000D02*
X97425000Y-112375000D01*
X98075000Y-112125000D02*
X98075000Y-112375000D01*
X97425000Y-112125000D02*
X98075000Y-112125000D01*
X97425000Y-112375000D02*
X97425000Y-112125000D01*
G04 #@! TO.C,R26*
X88875000Y-114925000D02*
X88875000Y-115575000D01*
X88625000Y-114925000D02*
X88875000Y-114925000D01*
X88625000Y-115575000D02*
X88625000Y-114925000D01*
X88875000Y-115575000D02*
X88625000Y-115575000D01*
G04 #@! TO.C,R27*
X89425000Y-112375000D02*
X89425000Y-112125000D01*
X89425000Y-112125000D02*
X90075000Y-112125000D01*
X90075000Y-112125000D02*
X90075000Y-112375000D01*
X90075000Y-112375000D02*
X89425000Y-112375000D01*
G04 #@! TO.C,R28*
X80875000Y-115575000D02*
X80625000Y-115575000D01*
X80625000Y-115575000D02*
X80625000Y-114925000D01*
X80625000Y-114925000D02*
X80875000Y-114925000D01*
X80875000Y-114925000D02*
X80875000Y-115575000D01*
G04 #@! TO.C,R29*
X82075000Y-112375000D02*
X81425000Y-112375000D01*
X82075000Y-112125000D02*
X82075000Y-112375000D01*
X81425000Y-112125000D02*
X82075000Y-112125000D01*
X81425000Y-112375000D02*
X81425000Y-112125000D01*
G04 #@! TO.C,R30*
X73125000Y-114925000D02*
X73125000Y-115575000D01*
X72875000Y-114925000D02*
X73125000Y-114925000D01*
X72875000Y-115575000D02*
X72875000Y-114925000D01*
X73125000Y-115575000D02*
X72875000Y-115575000D01*
G04 #@! TO.C,R31*
X74075000Y-112375000D02*
X73425000Y-112375000D01*
X74075000Y-112125000D02*
X74075000Y-112375000D01*
X73425000Y-112125000D02*
X74075000Y-112125000D01*
X73425000Y-112375000D02*
X73425000Y-112125000D01*
G04 #@! TO.C,R33*
X66075000Y-112325000D02*
X65425000Y-112325000D01*
X66075000Y-112075000D02*
X66075000Y-112325000D01*
X65425000Y-112075000D02*
X66075000Y-112075000D01*
X65425000Y-112325000D02*
X65425000Y-112075000D01*
G04 #@! TO.C,R35*
X106875000Y-45175000D02*
X106875000Y-45825000D01*
X106625000Y-45175000D02*
X106875000Y-45175000D01*
X106625000Y-45825000D02*
X106625000Y-45175000D01*
X106875000Y-45825000D02*
X106625000Y-45825000D01*
G04 #@! TO.C,R37*
X98875000Y-45825000D02*
X98625000Y-45825000D01*
X98625000Y-45825000D02*
X98625000Y-45175000D01*
X98625000Y-45175000D02*
X98875000Y-45175000D01*
X98875000Y-45175000D02*
X98875000Y-45825000D01*
G04 #@! TO.C,R39*
X105175000Y-110875000D02*
X105175000Y-110625000D01*
X105175000Y-110625000D02*
X105825000Y-110625000D01*
X105825000Y-110625000D02*
X105825000Y-110875000D01*
X105825000Y-110875000D02*
X105175000Y-110875000D01*
G04 #@! TO.C,C32*
X120575000Y-112325000D02*
X120575000Y-112075000D01*
X120575000Y-112075000D02*
X121225000Y-112075000D01*
X121225000Y-112075000D02*
X121225000Y-112325000D01*
X121225000Y-112325000D02*
X120575000Y-112325000D01*
G04 #@! TO.C,IC40*
X123500000Y-111000000D02*
X124500000Y-111000000D01*
X124500000Y-111000000D02*
X124500000Y-112600000D01*
X124500000Y-112600000D02*
X122900000Y-112600000D01*
X122900000Y-112600000D02*
X122900000Y-111600000D01*
X122900000Y-111600000D02*
X123500000Y-111000000D01*
G04 #@! TO.C,J2*
X128310000Y-95020000D02*
X120690000Y-95020000D01*
X120690000Y-95020000D02*
X120690000Y-92480000D01*
X120690000Y-92480000D02*
X128310000Y-92480000D01*
X128310000Y-92480000D02*
X128310000Y-95020000D01*
G04 #@! TD*
M02*
