M48
;DRILL file {KiCad (5.0.0-rc3-dev)} date 11/12/18 18:29:03
;FORMAT={-:-/ absolute / inch / decimal}
FMAT,2
INCH,TZ
T1C0.0079
T2C0.0157
T3C0.0236
T4C0.0256
T5C0.0276
T6C0.0394
T7C0.0394
%
G90
G05
M72
T1
X5.6752Y-2.4764
X5.6752Y-2.5236
X5.7224Y-2.4764
X5.7224Y-2.5236
T2
X2.5098Y-4.3012
X2.8445Y-5.3543
X2.8642Y-4.3504
X3.1791Y-4.3504
X3.1988Y-4.7835
X3.1988Y-5.2165
X3.1988Y-5.6496
X3.4547Y-2.5492
X3.4941Y-4.3504
X3.5236Y-2.4803
X3.563Y-2.3917
X3.611Y-2.3465
X3.6319Y-4.7835
X3.6319Y-5.2165
X3.6319Y-5.6496
X3.6811Y-1.4567
X3.8091Y-4.3504
X3.8189Y-1.8307
X3.9272Y-1.5453
X3.9862Y-3.2087
X3.9862Y-4.3012
X3.9961Y-3.0315
X4.0059Y-2.6181
X4.0059Y-3.6122
X4.0059Y-3.7894
X4.0059Y-4.2028
X4.065Y-4.7835
X4.065Y-5.2165
X4.065Y-5.6496
X4.0945Y-3.7402
X4.1043Y-2.5591
X4.1043Y-3.1496
X4.1142Y-1.6634
X4.1339Y-1.8307
X4.2126Y-3.0315
X4.2126Y-3.6319
X4.2126Y-4.2126
X4.2126Y-4.3307
X4.2323Y-3.1594
X4.3504Y-3.7992
X4.3898Y-1.435
X4.3898Y-4.3012
X4.4193Y-4.5039
X4.432Y-2.1978
X4.4587Y-4.5039
X4.498Y-4.7835
X4.498Y-5.2165
X4.498Y-5.6496
X4.5079Y-2.1457
X4.5177Y-3.151
X4.5177Y-3.5531
X4.5214Y-4.0884
X4.5276Y-1.9193
X4.5276Y-2.3228
X4.5276Y-2.7362
X4.5472Y-3.6516
X4.5768Y-3.8681
X4.5879Y-4.2415
X4.6063Y-3.6319
X4.6457Y-3.8189
X4.6555Y-1.5354
X4.7087Y-4.3898
X4.7441Y-2.687
X4.7441Y-2.9528
X4.7441Y-3.2776
X4.7441Y-4.1142
X4.7441Y-4.2323
X4.7522Y-2.9053
X4.7539Y-3.5335
X4.7795Y-4.2086
X4.8033Y-4.2684
X4.8043Y-4.0835
X4.8311Y-4.2406
X4.8413Y-1.7335
X4.8622Y-4.2953
X4.874Y-4.1914
X4.9173Y-4.2992
X4.93Y-1.6448
X4.9409Y-4.0748
X4.9508Y-4.7835
X4.9508Y-5.2165
X4.9508Y-5.6496
X4.9558Y-4.4822
X4.9705Y-3.8091
X4.9724Y-4.3622
X5.0236Y-4.3976
X5.0591Y-4.0551
X5.0886Y-1.5354
X5.0961Y-3.6047
X5.1772Y-3.8091
X5.187Y-3.5138
X5.2067Y-1.6929
X5.2067Y-2.4803
X5.2067Y-2.8937
X5.2165Y-2.0669
X5.2193Y-3.7669
X5.2559Y-3.3169
X5.2756Y-3.2677
X5.2953Y-3.75
X5.3051Y-4.3898
X5.3642Y-5.0197
X5.3642Y-5.4528
X5.3839Y-3.5039
X5.3839Y-3.5433
X5.3937Y-3.4055
X5.4263Y-3.9632
X5.4429Y-3.8386
X5.4429Y-3.878
X5.4429Y-4.3307
X5.4724Y-2.4508
X5.502Y-3.6319
X5.5106Y-4.0465
X5.5118Y-3.2972
X5.5118Y-4.0059
X5.5217Y-2.3524
X5.5315Y-3.4646
X5.5413Y-4.1142
X5.5896Y-3.6319
X5.5906Y-3.4646
X5.6287Y-4.0071
X5.6299Y-3.7795
X5.6594Y-4.3701
X5.6644Y-3.8458
X5.689Y-3.878
X5.6988Y-4.2618
X5.7185Y-3.2579
X5.7283Y-3.7106
X5.7283Y-4.2323
X5.7677Y-4.1929
X5.7874Y-3.6516
X5.7972Y-2.3622
X5.7972Y-3.7894
T5
X3.0594Y-3.2744
X3.0594Y-3.3744
X3.0594Y-3.4744
X3.0594Y-3.5744
X3.0594Y-3.6744
X3.2594Y-3.2744
X3.2594Y-3.3744
X3.2594Y-3.4744
X3.2594Y-3.5744
X3.2594Y-3.6744
X2.4295Y-3.865
X2.4295Y-3.965
X2.4295Y-4.065
X2.4295Y-4.165
X2.4295Y-4.265
X2.6295Y-3.865
X2.6295Y-3.965
X2.6295Y-4.065
X2.6295Y-4.165
X2.6295Y-4.265
X3.3744Y-3.2744
X3.3744Y-3.3744
X3.3744Y-3.4744
X3.3744Y-3.5744
X3.3744Y-3.6744
X3.5744Y-3.2744
X3.5744Y-3.3744
X3.5744Y-3.4744
X3.5744Y-3.5744
X3.5744Y-3.6744
X3.6894Y-2.0933
X3.6894Y-2.1933
X3.6894Y-2.2933
X3.6894Y-2.3933
X3.6894Y-2.4933
X3.8894Y-2.0933
X3.8894Y-2.1933
X3.8894Y-2.2933
X3.8894Y-2.3933
X3.8894Y-2.4933
X4.0043Y-2.0933
X4.0043Y-2.1933
X4.0043Y-2.2933
X4.0043Y-2.3933
X4.0043Y-2.4933
X4.2043Y-2.0933
X4.2043Y-2.1933
X4.2043Y-2.2933
X4.2043Y-2.3933
X4.2043Y-2.4933
X2.7445Y-2.6839
X2.7445Y-2.7839
X2.7445Y-2.8839
X2.7445Y-2.9839
X2.7445Y-3.0839
X2.9445Y-2.6839
X2.9445Y-2.7839
X2.9445Y-2.8839
X2.9445Y-2.9839
X2.9445Y-3.0839
X3.0594Y-2.6839
X3.0594Y-2.7839
X3.0594Y-2.8839
X3.0594Y-2.9839
X3.0594Y-3.0839
X3.2594Y-2.6839
X3.2594Y-2.7839
X3.2594Y-2.8839
X3.2594Y-2.9839
X3.2594Y-3.0839
X3.0594Y-3.865
X3.0594Y-3.965
X3.0594Y-4.065
X3.0594Y-4.165
X3.0594Y-4.265
X3.2594Y-3.865
X3.2594Y-3.965
X3.2594Y-4.065
X3.2594Y-4.165
X3.2594Y-4.265
X2.4295Y-3.2744
X2.4295Y-3.3744
X2.4295Y-3.4744
X2.4295Y-3.5744
X2.4295Y-3.6744
X2.6295Y-3.2744
X2.6295Y-3.3744
X2.6295Y-3.4744
X2.6295Y-3.5744
X2.6295Y-3.6744
X2.4295Y-2.6839
X2.4295Y-2.7839
X2.4295Y-2.8839
X2.4295Y-2.9839
X2.4295Y-3.0839
X2.6295Y-2.6839
X2.6295Y-2.7839
X2.6295Y-2.8839
X2.6295Y-2.9839
X2.6295Y-3.0839
X3.3744Y-2.6839
X3.3744Y-2.7839
X3.3744Y-2.8839
X3.3744Y-2.9839
X3.3744Y-3.0839
X3.5744Y-2.6839
X3.5744Y-2.7839
X3.5744Y-2.8839
X3.5744Y-2.9839
X3.5744Y-3.0839
X2.7445Y-3.865
X2.7445Y-3.965
X2.7445Y-4.065
X2.7445Y-4.165
X2.7445Y-4.265
X2.9445Y-3.865
X2.9445Y-3.965
X2.9445Y-4.065
X2.9445Y-4.165
X2.9445Y-4.265
X3.6894Y-3.865
X3.6894Y-3.965
X3.6894Y-4.065
X3.6894Y-4.165
X3.6894Y-4.265
X3.8894Y-3.865
X3.8894Y-3.965
X3.8894Y-4.065
X3.8894Y-4.165
X3.8894Y-4.265
X3.3744Y-3.865
X3.3744Y-3.965
X3.3744Y-4.065
X3.3744Y-4.165
X3.3744Y-4.265
X3.5744Y-3.865
X3.5744Y-3.965
X3.5744Y-4.065
X3.5744Y-4.165
X3.5744Y-4.265
X2.7445Y-3.2744
X2.7445Y-3.3744
X2.7445Y-3.4744
X2.7445Y-3.5744
X2.7445Y-3.6744
X2.9445Y-3.2744
X2.9445Y-3.3744
X2.9445Y-3.4744
X2.9445Y-3.5744
X2.9445Y-3.6744
X2.4295Y-1.4063
X2.4295Y-1.5063
X2.4295Y-1.6063
X2.4295Y-1.7063
X2.4295Y-1.8063
X2.6295Y-1.4063
X2.6295Y-1.5063
X2.6295Y-1.6063
X2.6295Y-1.7063
X2.6295Y-1.8063
X3.6894Y-3.2744
X3.6894Y-3.3744
X3.6894Y-3.4744
X3.6894Y-3.5744
X3.6894Y-3.6744
X3.8894Y-3.2744
X3.8894Y-3.3744
X3.8894Y-3.4744
X3.8894Y-3.5744
X3.8894Y-3.6744
X2.7445Y-2.0933
X2.7445Y-2.1933
X2.7445Y-2.2933
X2.7445Y-2.3933
X2.7445Y-2.4933
X2.9445Y-2.0933
X2.9445Y-2.1933
X2.9445Y-2.2933
X2.9445Y-2.3933
X2.9445Y-2.4933
X3.6894Y-2.6839
X3.6894Y-2.7839
X3.6894Y-2.8839
X3.6894Y-2.9839
X3.6894Y-3.0839
X3.8894Y-2.6839
X3.8894Y-2.7839
X3.8894Y-2.8839
X3.8894Y-2.9839
X3.8894Y-3.0839
X2.7445Y-1.4063
X2.7445Y-1.5063
X2.7445Y-1.6063
X2.7445Y-1.7063
X2.7445Y-1.8063
X2.9445Y-1.4063
X2.9445Y-1.5063
X2.9445Y-1.6063
X2.9445Y-1.7063
X2.9445Y-1.8063
X2.4295Y-2.0933
X2.4295Y-2.1933
X2.4295Y-2.2933
X2.4295Y-2.3933
X2.4295Y-2.4933
X2.6295Y-2.0933
X2.6295Y-2.1933
X2.6295Y-2.2933
X2.6295Y-2.3933
X2.6295Y-2.4933
T6
X5.5807Y-2.9134
X5.5807Y-3.1693
X5.7579Y-2.9134
X5.7579Y-3.1693
X4.8016Y-3.6909
X4.9016Y-3.6909
X5.0016Y-3.6909
T7
X5.461Y-3.3307
X5.461Y-3.4107
X5.661Y-3.3707
T3
X5.8228Y-4.2549G85X5.8504Y-4.2549
G05
X5.8228Y-4.5837G85X5.8504Y-4.5837
G05
T4
X5.7146Y-4.3317G85X5.7224Y-4.3317
G05
X5.7146Y-4.5069G85X5.7224Y-4.5069
G05
T0
M30
